<?xml version="1.0" encoding="iso-8859-1"?>
<!-- Generator: Adobe Illustrator 19.0.0, SVG Export Plug-In . SVG Version: 6.00 Build 0)  -->
<svg version="1.1" id="Layer_1" xmlns="http://www.w3.org/2000/svg" xmlns:xlink="http://www.w3.org/1999/xlink" x="0px" y="0px"
	 viewBox="0 0 512 512" style="enable-background:new 0 0 512 512;" xml:space="preserve">
<g>
	<path style="fill:#FFB655;" d="M405.005,172.355c-4.06-6.352-8.861-12.418-14.323-18.125c-0.624-0.65-1.218-1.316-1.86-1.958
		l-6.636-6.636l-7.91-7.91l-7.913-7.911l-6.633-6.634c-0.642-0.642-1.309-1.24-1.961-1.863c-1.426-1.365-2.875-2.69-4.344-3.97
		c-4.411-3.845-9.013-7.304-13.777-10.352c-2.537-1.621-5.117-3.129-7.733-4.521c-1.308-0.695-2.627-1.362-3.953-1.998
		c-2.653-1.274-5.34-2.43-8.054-3.465c-2.715-1.035-5.457-1.95-8.22-2.743c-4.146-1.188-8.338-2.101-12.558-2.729
		c-8.439-1.255-16.983-1.372-25.459-0.284c-22.509,2.887-43.327,14.116-59.655,31.663c-5.79,6.225-11.03,13.222-15.562,20.953
		l-10.833,18.477L3.195,476.956c-5.354,9.137-3.866,20.737,3.623,28.226s19.09,8.977,28.225,3.621l222.903-130.669l41.5-24.328
		l68.683-40.263c29.525-17.309,48.705-44.724,52.614-75.214C423.646,215.727,417.98,192.645,405.005,172.355z"/>
	<path style="fill:#FFB655;" d="M405.005,172.355c-4.06-6.352-8.861-12.418-14.323-18.125c-0.624-0.65-1.218-1.316-1.86-1.958
		l-6.636-6.636l-7.91-7.91l-7.913-7.911l-6.633-6.634c-0.642-0.641-1.309-1.24-1.961-1.863c-5.705-5.463-11.77-10.26-18.123-14.322
		c-20.291-12.975-43.372-18.641-65.976-15.74c-22.509,2.887-43.327,14.116-59.655,31.663c-5.79,6.225-11.03,13.222-15.562,20.953
		l-10.833,18.477L3.195,476.956c-5.354,9.137-3.866,20.737,3.623,28.226s19.09,8.977,28.225,3.621l222.903-130.669l41.5-24.328
		l68.683-40.263c29.525-17.309,48.705-44.724,52.614-75.212C423.646,215.727,417.98,192.645,405.005,172.355z"/>
</g>
<path style="fill:#64C37D;" d="M486.156,116.509l-64.971,7.219l54.906-54.905c9.087-9.089,9.087-23.823-0.002-32.912
	c-9.086-9.087-23.823-9.087-32.912,0l-54.905,54.903l7.219-64.969c1.42-12.777-7.787-24.283-20.559-25.701
	c-12.775-1.42-24.281,7.785-25.699,20.559l-9.59,86.293c6.353,4.062,12.418,8.861,18.123,14.322
	c0.652,0.624,1.319,1.223,1.961,1.863l6.633,6.634l7.913,7.911l7.91,7.91l6.636,6.636c0.642,0.642,1.237,1.306,1.86,1.958
	c5.463,5.706,10.263,11.771,14.323,18.125l86.29-9.585c12.775-1.42,21.982-12.926,20.562-25.701
	C510.437,124.292,498.928,115.087,486.156,116.509z"/>
<g>
	<path style="fill:#DB512A;" d="M342.993,172.113c0.074,0.061,0.146,0.124,0.22,0.183c0.105,0.087,0.22,0.16,0.327,0.242
		c0.385,0.299,0.777,0.591,1.184,0.869c0.168,0.115,0.334,0.228,0.504,0.34c0.092,0.061,0.188,0.115,0.284,0.174
		c0.346,0.217,0.7,0.42,1.058,0.618c0.234,0.13,0.467,0.261,0.704,0.382c0.098,0.05,0.199,0.09,0.295,0.137
		c-0.071-0.034-0.146-0.064-0.217-0.101c-0.535-0.27-1.05-0.568-1.559-0.877c-0.137-0.082-0.276-0.155-0.411-0.242
		c-0.105-0.067-0.209-0.138-0.315-0.206c-0.501-0.33-0.988-0.681-1.463-1.049c-0.033-0.023-0.062-0.043-0.093-0.068
		c-0.138-0.107-0.278-0.211-0.413-0.32c-0.602-0.493-1.185-1.007-1.736-1.556c0.003,0.003,0.006,0.008,0.009,0.011
		C341.886,171.163,342.433,171.646,342.993,172.113z"/>
	<path style="fill:#DB512A;" d="M357.915,177.442c-0.059,0-0.115,0.008-0.174,0.006c-0.233,0-0.467-0.026-0.7-0.033
		c-0.577-0.019-1.153-0.047-1.721-0.109c-0.352-0.037-0.7-0.098-1.049-0.15c-0.461-0.071-0.925-0.149-1.379-0.247
		c-0.346-0.074-0.69-0.161-1.033-0.253c-0.464-0.123-0.923-0.259-1.376-0.411c-0.309-0.102-0.614-0.206-0.922-0.323
		c-0.49-0.186-0.973-0.396-1.449-0.614c-0.005-0.002-0.009-0.003-0.012-0.005c0.15,0.068,0.298,0.143,0.448,0.208
		c0.227,0.098,0.447,0.205,0.675,0.293c0.164,0.067,0.335,0.126,0.501,0.188c0.222,0.082,0.447,0.154,0.67,0.227
		c0.13,0.045,0.259,0.09,0.389,0.133c0.154,0.047,0.301,0.109,0.456,0.154c0.23,0.068,0.469,0.116,0.7,0.177
		c0.29,0.074,0.58,0.149,0.873,0.214c0.161,0.034,0.316,0.079,0.479,0.11c0.244,0.05,0.49,0.074,0.735,0.115
		c0.118,0.02,0.236,0.037,0.354,0.056c0.264,0.039,0.524,0.093,0.788,0.123c0.028,0.003,0.053,0.008,0.079,0.011
		c0.053,0.006,0.102,0.005,0.157,0.009c0.47,0.048,0.94,0.065,1.412,0.087c0.275,0.011,0.551,0.045,0.824,0.048
		c0.04,0,0.082-0.003,0.121-0.005c0.351,0.002,0.695-0.029,1.046-0.043c0.414-0.019,0.83-0.022,1.24-0.059
		c0.034-0.003,0.065-0.011,0.101-0.014c0.029-0.003,0.062-0.011,0.093-0.014c-0.005,0-0.008,0-0.012,0
		C359.451,177.4,358.68,177.438,357.915,177.442z"/>
	<path style="fill:#DB512A;" d="M371.621,172.885c-1.897,1.401-4.003,2.512-6.257,3.288
		C367.572,175.419,369.678,174.321,371.621,172.885z"/>
	<path style="fill:#DB512A;" d="M365.364,176.173c-1.117,0.382-2.257,0.65-3.407,0.864
		C363.119,176.822,364.262,176.552,365.364,176.173z"/>
</g>
<g>
	<path style="fill:#EE8700;" d="M374.274,137.727l-7.913-7.911l-6.633-6.634c-0.642-0.641-1.309-1.24-1.961-1.863
		c-5.705-5.463-11.77-10.26-18.123-14.322c-20.291-12.975-43.372-18.641-65.976-15.74c-22.509,2.887-43.327,14.116-59.655,31.663
		l58.443,58.443c9.089,9.089,9.089,23.823,0,32.914c-9.089,9.087-23.823,9.087-32.912,0l-39.222-39.222l-12.705-12.704
		L3.195,476.956c-5.354,9.137-3.866,20.737,3.623,28.226l334.544-334.545L374.274,137.727z"/>
	<path style="fill:#EE8700;" d="M257.908,312.271c-9.087-9.087-23.823-9.089-32.912,0c-9.087,9.089-9.089,23.823-0.002,32.912
		l0.002,0.002h-0.002l20.236,20.236c0.002,0.002,0,0,0.002,0.002l12.713,12.713l41.5-24.328l-41.537-41.535
		C257.908,312.271,257.91,312.272,257.908,312.271z"/>
</g>
<g>
</g>
<g>
</g>
<g>
</g>
<g>
</g>
<g>
</g>
<g>
</g>
<g>
</g>
<g>
</g>
<g>
</g>
<g>
</g>
<g>
</g>
<g>
</g>
<g>
</g>
<g>
</g>
<g>
</g>
</svg>
